# Exported from Wings 3D 0.98.26
mtllib shoe_draft2.mtl
o cube6
#173 vertices, 177 faces
v -0.216372 -0.142077 1.06899
v -0.217880 -4.89105e-2 1.07848
v 0.218884 -5.71474e-2 0.900892
v 0.261679 -0.138627 0.922139
v -5.90699e-2 -0.167935 -0.620879
v -5.71502e-2 -5.71474e-2 -0.613221
v 0.194216 -5.71474e-2 -0.541915
v 0.192297 -0.141937 -0.542484
v -0.310956 -0.134630 0.781953
v -0.189006 -0.154322 0.186312
v -0.165543 -0.128783 -0.155314
v -0.189675 -0.180074 -0.362407
v -0.308525 -6.66002e-2 0.777124
v -0.189046 -6.16317e-2 0.233467
v -0.165316 -5.71474e-2 -2.53627e-2
v -0.187755 -4.36875e-2 -0.334919
v 0.313758 -5.71474e-2 0.546431
v 0.311019 -5.71474e-2 0.301533
v 0.261161 -5.71474e-2 -3.63913e-5
v 0.260133 -5.71474e-2 -0.301606
v 0.313798 -0.138627 0.546362
v 0.311058 -0.138627 0.301463
v 0.261200 -0.138627 -1.06036e-4
v 0.258213 -0.141937 -0.302174
v -0.275885 -0.158087 0.480652
v -0.275924 -7.44455e-2 0.478559
v -0.314503 -0.133912 0.929887
v -0.314587 -6.14009e-2 0.926138
v -7.00902e-2 -0.138627 1.12121
v 8.86625e-2 -0.138627 1.07139
v -7.39092e-2 -4.60437e-2 1.10561
v 6.98521e-2 -4.85346e-2 1.05141
v 7.90817e-2 -0.141937 -0.637176
v 8.10014e-2 -5.71474e-2 -0.636608
v -0.164324 -0.175937 -0.492070
v -0.162404 -4.58143e-2 -0.484702
v -4.92348e-2 3.78485e-2 -0.600028
v -0.162404 4.46484e-2 -0.493804
v -0.187755 4.90651e-2 -0.355109
v -0.165316 4.01125e-2 -4.80022e-2
v -0.189046 3.33642e-2 0.222256
v -0.246901 4.00374e-2 0.494521
v -0.261378 2.26191e-2 0.759934
v -0.256541 2.25880e-2 0.938579
v -0.180785 1.60922e-2 1.03380
v -5.85625e-2 1.66869e-2 1.00144
v 5.78406e-2 3.78485e-2 0.929864
v 0.133233 3.78485e-2 0.829862
v 0.231966 3.78485e-2 0.506854
v 0.272321 3.78485e-2 0.300653
v 0.262920 3.78485e-2 -4.04929e-2
v 0.268928 3.78485e-2 -0.313918
v 0.193337 3.78485e-2 -0.527843
v 7.66040e-2 3.78485e-2 -0.618139
v 7.66040e-2 0.152182 -0.618139
v -4.75500e-2 0.154715 -0.610496
v -0.161054 0.166946 -0.477813
v -0.188212 0.171757 -0.341692
v -0.165170 0.164635 -7.59421e-2
v -0.151106 0.152182 6.21307e-2
v -0.165434 0.157220 0.260236
v -0.154080 0.152182 0.410392
v -0.121979 0.152182 0.466516
v -7.84365e-2 0.152182 0.480463
v -2.10022e-2 0.152182 0.487681
v 3.74556e-2 0.152182 0.460755
v 7.32494e-2 0.152182 0.443461
v 0.128186 0.152182 0.412749
v 0.187890 0.152182 0.270751
v 0.256111 0.152424 -7.46110e-2
v 0.269807 0.152182 -0.357893
v 0.193337 0.152182 -0.527843
v 0.192667 0.285711 -0.523116
v 8.05338e-2 0.309902 -0.596666
v -4.60851e-2 0.305884 -0.581685
v -0.162429 0.280186 -0.477940
v -0.187779 0.280186 -0.366328
v -0.163587 0.280186 -0.105937
v -0.149609 0.292961 -2.10936e-2
v -0.122209 0.363489 5.35425e-2
v -9.09795e-2 0.363489 0.103649
v -5.88778e-2 0.363489 0.159773
v -3.55006e-2 0.363489 0.185994
v 2.64534e-3 0.363489 0.187075
v 5.05823e-2 0.363489 0.168040
v 8.89420e-2 0.373805 0.129814
v 0.178734 0.328642 4.40420e-2
v 0.202080 0.287206 -3.78371e-3
v 0.261347 0.280428 -0.199111
v 0.269783 0.280186 -0.357896
v 0.251275 0.280170 -0.354435
v 0.177856 0.285711 -0.511439
v 7.54689e-2 0.309903 -0.577451
v -3.70683e-2 0.305885 -0.564496
v -0.145673 0.280187 -0.469101
v -0.169290 0.280188 -0.365118
v -0.145402 0.280188 -0.107992
v -0.131575 0.292963 -2.42859e-2
v -0.105022 0.363490 4.65250e-2
v -7.52680e-2 0.363490 9.42639e-2
v -4.39455e-2 0.363490 0.149026
v -2.70942e-2 0.363490 0.167927
v -6.04317e-4 0.363490 0.168678
v 4.28944e-2 0.363490 0.151405
v 7.50824e-2 0.373806 0.116454
v 0.164307 0.328643 3.59918e-2
v 0.187203 0.287206 -1.07991e-2
v 0.243208 0.280411 -0.202583
v 0.178502 0.280187 -0.516170
v 7.15147e-2 0.280187 -0.598927
v -4.02424e-2 0.280187 -0.582843
v -0.132459 0.280188 -1.08607e-2
v -0.105022 0.280188 0.113038
v -7.52680e-2 0.280187 0.160777
v -4.39455e-2 0.280187 0.215539
v -2.70942e-2 0.280187 0.234440
v -6.04317e-4 0.280187 0.235191
v 4.28944e-2 0.280187 0.217918
v 7.42699e-2 0.280187 0.201269
v 9.50715e-2 0.280188 0.158331
v 0.177935 0.280186 -8.93439e-3
v 0.222501 0.251714 -0.349052
v 0.155475 0.251732 -0.498012
v 6.36429e-2 0.251734 -0.569047
v -2.62175e-2 0.251737 -0.556114
v -0.119613 0.251739 -0.455356
v -0.140536 0.251739 -0.363236
v -0.117120 0.251739 -0.111187
v -0.104413 0.251739 -1.58237e-2
v -7.82923e-2 0.251738 0.102127
v -5.08331e-2 0.251738 0.146185
v -2.07220e-2 0.251737 0.198828
v -1.40184e-2 0.251736 0.206348
v -5.65349e-3 0.251733 0.206585
v 3.09437e-2 0.251732 0.192052
v 5.27225e-2 0.251731 0.180496
v 6.95243e-2 0.251731 0.145814
v 0.151591 0.251730 -1.98422e-2
v 0.215006 0.251955 -0.207980
v 0.260591 -0.146895 -9.92013e-2
v 0.258289 -0.150206 -0.200223
v -0.177141 -0.137418 1.47854e-2
v -0.178722 -0.160218 -0.258396
v -0.164531 -0.164631 -0.158424
v 0.260951 -0.182742 -0.100590
v 0.261294 -0.182742 -6.70957e-5
v 0.311152 -0.182742 0.301502
v 0.313892 -0.182742 0.546400
v 0.261772 -0.172461 0.922178
v 8.87561e-2 -0.166216 1.07143
v -6.88414e-2 -0.170898 1.12149
v -0.214108 -0.173666 1.06823
v -0.301488 -0.178493 0.935564
v -0.317657 -0.180880 0.773514
v -0.275791 -0.202203 0.480691
v -0.188912 -0.198437 0.186351
v -0.176395 -0.181534 1.31030e-2
v -0.175374 -0.191210 -0.258911
v -0.186593 -0.219334 -0.361494
v -0.161243 -0.215197 -0.491157
v -5.59882e-2 -0.207195 -0.619967
v 8.21633e-2 -0.181197 -0.636264
v 0.195378 -0.181197 -0.541571
v 0.261295 -0.181197 -0.301261
v 0.261637 -0.181197 -0.200738
v -0.206168 9.86288e-2 0.377379
v -0.207729 8.74006e-2 0.585163
v -0.180431 5.33600e-2 0.749916
v -0.109348 3.32016e-2 0.833068
v -2.61927e-2 4.64999e-2 0.805890
v 5.81567e-2 5.37913e-2 0.734597
v 0.105093 8.65499e-2 0.637963
v 0.180076 9.50153e-2 0.459801
vn -0.518603 0.377521 0.767156
vn 0.731336 0.557320 0.393118
vn -0.480036 8.19693e-2 -0.873411
vn 0.834338 2.17105e-2 -0.550826
vn -0.971558 0.229397 -5.87539e-2
vn -0.980267 6.80977e-2 -0.185581
vn -0.999639 2.31363e-2 -1.36884e-2
vn -0.999805 -1.06444e-2 -1.66336e-2
vn 0.908452 0.401524 0.116164
vn 0.981445 0.185019 -5.03394e-2
vn 0.998414 2.12738e-2 -5.21258e-2
vn 0.993057 -2.94974e-2 -0.113878
vn -0.970747 0.145628 -0.190902
vn -0.920078 0.286247 0.267429
vn 7.28134e-2 0.506792 0.858988
vn 0.445359 0.576567 0.685001
vn 0.263825 9.58234e-2 -0.959799
vn -0.901167 2.80118e-2 -0.432566
vn -0.455115 5.11758e-2 -0.888961
vn -0.891936 1.82365e-2 -0.451793
vn -0.998606 4.67251e-3 -5.25675e-2
vn -0.999260 3.66774e-2 1.15486e-2
vn -0.978617 0.147758 -0.143098
vn -0.927588 0.347666 -0.136778
vn -0.768081 0.640205 1.37591e-2
vn -0.519165 0.831307 0.198484
vn -0.194381 0.906398 0.375044
vn 2.84244e-2 0.929083 0.368777
vn 0.172528 0.928374 0.329174
vn 0.448426 0.855563 0.258702
vn 0.686429 0.711673 0.149456
vn 0.852210 0.515887 8.71689e-2
vn 0.990362 0.138257 8.21790e-3
vn 0.986932 -3.21482e-2 -0.157899
vn 0.813394 9.92481e-3 -0.581629
vn 0.265725 7.35700e-2 -0.961238
vn 0.270228 4.93327e-2 -0.961532
vn -0.436702 5.82241e-2 -0.897720
vn -0.885994 2.59093e-2 -0.462972
vn -0.998331 8.38778e-3 -5.71402e-2
vn -0.995728 6.09352e-2 6.93672e-2
vn -0.989712 0.143035 -3.28865e-3
vn -0.920697 0.388915 3.25938e-2
vn -0.667774 0.712029 0.217008
vn -0.354752 0.861768 0.362639
vn -0.126368 0.891917 0.434183
vn 8.23285e-2 0.887362 0.453664
vn 0.203652 0.869359 0.450266
vn 0.354106 0.835935 0.419311
vn 0.661057 0.675828 0.325975
vn 0.873318 0.440677 0.207651
vn 0.979613 0.175810 9.72115e-2
vn 0.983794 -5.73601e-3 -0.179213
vn 0.786423 4.86490e-4 -0.617688
vn 0.580751 0.718632 -0.382487
vn 0.217312 0.775890 -0.592258
vn -0.333768 0.772603 -0.540077
vn -0.640135 0.717217 -0.275366
vn -0.701151 0.711801 -4.15612e-2
vn -0.692985 0.720572 2.34213e-2
vn -0.731630 0.645136 -0.220268
vn -0.651957 0.745061 -0.140841
vn -0.420189 0.893988 0.155649
vn -0.248705 0.940319 0.232260
vn -9.38902e-2 0.953652 0.285891
vn 5.21748e-2 0.951486 0.303237
vn 0.105507 0.937142 0.332616
vn 0.261286 0.935671 0.237171
vn 0.566151 0.823880 -2.63468e-2
vn 0.648185 0.761117 -2.35829e-2
vn 0.649899 0.755974 7.83259e-2
vn 0.684928 0.718467 -0.121158
vn 0.321418 0.483181 0.814387
vn 0.377702 0.925597 2.47173e-2
vn 0.941999 0.292900 -0.163852
vn 0.898478 0.250967 -0.360212
vn 0.841662 0.197246 -0.502691
vn 0.799725 0.176832 -0.573733
vn 0.431950 0.112886 -0.894805
vn -0.174998 6.60460e-2 -0.982351
vn -0.443728 7.94875e-2 -0.892629
vn -0.706337 0.143039 -0.693274
vn -0.820491 0.342152 -0.457959
vn -0.724397 0.613445 -0.314538
vn -0.367185 0.927644 6.82091e-2
vn -0.292824 0.927864 0.230915
vn -0.120996 0.880129 0.459057
vn 0.224548 0.875420 0.428039
vn 0.328502 0.928469 0.173297
vn 0.377665 0.925616 2.45748e-2
vn 0.380005 0.923988 -4.29272e-2
vn 0.376434 0.924058 -6.64399e-2
vn 0.349903 0.925830 -0.142853
vn 0.261899 0.952338 -0.156403
vn 0.309242 0.924593 -0.222481
vn 0.199972 0.880659 -0.429477
vn -6.52630e-2 0.926641 -0.370240
vn -0.160311 0.924075 -0.346967
vn -0.350281 0.873665 -0.337659
vn -0.343688 0.923864 -0.168385
vn -0.281448 0.952519 -0.116166
vn -0.373138 0.925021 -7.14394e-2
vn -0.885872 0.458420 -7.12857e-2
vn -0.571753 0.813125 0.109208
vn -0.195931 0.959293 0.203392
vn -3.90989e-2 0.975339 0.217222
vn 7.09646e-3 0.976576 0.215054
vn 4.53709e-2 0.971946 0.230787
vn 0.259219 0.932626 0.251026
vn 0.587409 0.780101 0.215389
vn -0.584496 -1.69325e-3 0.811395
vn -0.584496 -1.69325e-3 0.811395
vn -0.609994 -8.11231e-2 0.788242
vn -0.609994 -8.11231e-2 0.788242
vn 0.824037 0.345405 0.449065
vn 0.824037 0.345405 0.449065
vn 0.878358 2.92230e-3 0.477995
vn 0.878358 2.92230e-3 0.477995
vn -0.492436 5.15735e-2 -0.868819
vn -0.492436 5.15735e-2 -0.868819
vn -0.475381 -5.77217e-2 -0.877884
vn -0.475381 -5.77217e-2 -0.877884
vn 0.841257 -1.54233e-2 -0.540415
vn 0.841257 -1.54233e-2 -0.540415
vn 0.840012 5.33842e-2 -0.539936
vn 0.840012 5.33842e-2 -0.539936
vn -0.997274 1.26235e-2 -7.26932e-2
vn -0.997274 1.26235e-2 -7.26932e-2
vn -0.998879 7.11541e-3 -4.67969e-2
vn -0.998879 7.11541e-3 -4.67969e-2
vn -0.978483 7.45330e-2 -0.192395
vn -0.978483 7.45330e-2 -0.192395
vn -0.983969 -5.25389e-3 -0.178262
vn -0.983969 -5.25389e-3 -0.178262
vn -0.999667 2.18751e-2 1.36599e-2
vn -3.17605e-2 -0.984919 0.170074
vn -0.631227 3.43185e-2 -0.774839
vn -0.631227 3.43185e-2 -0.774839
vn -0.999667 2.18751e-2 1.36599e-2
vn -0.999222 1.51944e-2 -3.63876e-2
vn -0.995667 -8.65935e-2 -3.38839e-2
vn -0.995667 -8.65935e-2 -3.38839e-2
vn -0.999222 1.51944e-2 -3.63876e-2
vn 0.986188 0.138603 9.06825e-2
vn 0.986188 0.138603 9.06825e-2
vn 0.997995 2.32125e-3 6.32564e-2
vn 0.997995 2.32125e-3 6.32564e-2
vn 0.996173 5.61102e-4 -8.74047e-2
vn 0.996173 5.61102e-4 -8.74047e-2
vn 0.996171 2.03734e-3 -8.74045e-2
vn 0.996171 2.03734e-3 -8.74045e-2
vn 0.996388 5.59079e-4 -8.49153e-2
vn 0.996431 3.86772e-3 -8.43263e-2
vn 0.996431 3.86772e-3 -8.43263e-2
vn 0.996388 5.59079e-4 -8.49153e-2
vn 0.990651 -2.15260e-2 -0.134708
vn 0.987893 8.10018e-2 -0.132311
vn 0.987893 8.10018e-2 -0.132311
vn 0.990651 -2.15260e-2 -0.134708
vn -0.976877 4.40694e-2 -0.209209
vn -0.976877 4.40694e-2 -0.209209
vn -0.976939 4.13513e-2 -0.209478
vn -0.976939 4.13513e-2 -0.209478
vn -0.961462 -6.59597e-3 0.274858
vn -0.961462 -6.59597e-3 0.274858
vn -0.944547 -0.103471 0.311647
vn -0.944547 -0.103471 0.311647
vn 2.87726e-2 0.127792 0.991384
vn 2.87726e-2 0.127792 0.991384
vn -2.04535e-2 -7.32966e-3 0.999764
vn -2.04535e-2 -7.32966e-3 0.999764
vn 0.487975 0.311207 0.815494
vn 0.487975 0.311207 0.815494
vn 0.487070 7.56318e-3 0.873330
vn 0.487070 7.56318e-3 0.873330
vn 0.271581 1.92191e-2 -0.962224
vn 0.271581 1.92191e-2 -0.962224
vn 0.288377 3.77292e-4 -0.957517
vn 0.288377 3.77292e-4 -0.957517
vn -0.906909 4.60936e-2 -0.418797
vn -0.906909 4.60936e-2 -0.418797
vn -0.900854 -8.06273e-2 -0.426569
vn -0.900854 -8.06273e-2 -0.426569
vn -0.577317 0.797888 0.173437
vn -0.577317 0.797888 0.173437
vn -0.577317 0.797888 0.173437
vn -0.577317 0.797888 0.173437
vn -0.577317 0.797888 0.173437
vn -0.596420 0.543138 0.591003
vn -0.596420 0.543138 0.591003
vn -0.596420 0.543138 0.591003
vn -0.596420 0.543138 0.591003
vn -0.165703 0.494661 0.853143
vn -0.165703 0.494661 0.853143
vn -0.165703 0.494661 0.853143
vn -0.165703 0.494661 0.853143
vn 0.474444 0.798614 0.370295
vn 0.474444 0.798614 0.370295
vn 0.474444 0.798614 0.370295
vn 0.474444 0.798614 0.370295
vn 0.474444 0.798614 0.370295
vn 0.589017 0.800773 -0.108722
vn 0.589017 0.800773 -0.108722
vn 0.589017 0.800773 -0.108722
vn 0.589017 0.800773 -0.108722
vn 0.589017 0.800773 -0.108722
vn -0.109215 0.903332 -0.414805
vn -0.109215 0.903332 -0.414805
vn 0.967531 -0.190463 -0.166153
vn 0.967531 -0.190463 -0.166153
vn -0.100638 0.932469 -0.346950
vn -0.100638 0.932469 -0.346950
vn 0.890223 -0.289083 -0.352042
vn 0.890223 -0.289083 -0.352042
vn -5.25141e-5 1.000000 3.26067e-5
vn -5.25141e-5 1.000000 3.26067e-5
vn 0.794541 -0.378873 -0.474510
vn 0.794541 -0.378873 -0.474510
vn -4.53763e-5 1.000000 3.33724e-5
vn -4.53763e-5 1.000000 3.33724e-5
vn 0.737478 -0.421402 -0.527775
vn 0.737478 -0.421402 -0.527775
vn -1.92760e-5 1.000000 4.27770e-5
vn -1.92760e-5 1.000000 4.27770e-5
vn 0.362466 -0.581525 -0.728318
vn 0.362466 -0.581525 -0.728318
vn 8.69065e-6 1.000000 4.41473e-5
vn 8.69065e-6 1.000000 4.41473e-5
vn -0.138928 -0.617905 -0.773881
vn -0.138928 -0.617905 -0.773881
vn -8.24597e-2 0.994829 5.92950e-2
vn -8.24597e-2 0.994829 5.92950e-2
vn -0.377702 -0.588838 -0.714571
vn -0.377702 -0.588838 -0.714571
vn 2.50059e-2 0.996119 -8.43863e-2
vn 2.50059e-2 0.996119 -8.43863e-2
vn -0.615517 -0.495602 -0.612795
vn -0.615517 -0.495602 -0.612795
vn 0.250656 0.872010 -0.420440
vn 0.250656 0.872010 -0.420440
vn -0.847912 -0.109697 -0.518664
vn -0.847912 -0.109697 -0.518664
vn 0.153922 0.939392 -0.306352
vn 0.153922 0.939392 -0.306352
vn -0.787664 0.502528 -0.356442
vn -0.787664 0.502528 -0.356442
vn -0.426960 0.897731 -0.108558
vn -0.426960 0.897731 -0.108558
vn -0.426960 0.897731 -0.108558
vn -0.426960 0.897731 -0.108558
vn -0.426960 0.897731 -0.108558
vn -0.776724 0.168425 0.606904
vn -0.776724 0.168425 0.606904
vn -0.776724 0.168425 0.606904
vn -0.776724 0.168425 0.606904
vn -0.265725 0.124703 0.955949
vn -0.265725 0.124703 0.955949
vn -0.265725 0.124703 0.955949
vn -0.265725 0.124703 0.955949
vn 0.391005 -0.567750 0.724414
vn 0.391005 -0.567750 0.724414
vn 0.318622 0.727709 0.607388
vn 0.318622 0.727709 0.607388
vn 0.999954 -6.40249e-3 -7.17505e-3
vn -3.17605e-2 -0.984919 0.170074
vn 0.135041 6.46310e-2 -0.988730
vn 0.999971 5.76083e-3 -5.00670e-3
vn 0.999954 -6.40249e-3 -7.17505e-3
vn 0.999824 -1.79583e-2 -5.37015e-3
vn -3.17605e-2 -0.984919 0.170074
vn 0.656157 4.59212e-2 0.753226
vn 0.656157 4.59212e-2 0.753226
vn 0.999824 -1.79583e-2 -5.37015e-3
vn -0.993177 9.30784e-2 -7.02545e-2
vn -0.997422 -1.29538e-2 -7.05818e-2
vn -0.997422 -1.29538e-2 -7.05818e-2
vn -0.993177 9.30784e-2 -7.02545e-2
vn -0.994443 -3.95820e-2 9.75496e-2
vn -3.17605e-2 -0.984919 0.170074
vn -0.705487 -7.58671e-2 0.704651
vn -0.705487 -7.58671e-2 0.704651
vn -0.994443 -3.95820e-2 9.75496e-2
vn -0.631227 3.43185e-2 -0.774839
vn -0.631227 3.43185e-2 -0.774839
vn -1.90844e-2 -0.997843 -6.28072e-2
vn 0.135041 6.46310e-2 -0.988730
vn 0.999971 5.76083e-3 -5.00670e-3
vn -1.90844e-2 -0.997843 -6.28072e-2
vn 0.996431 3.86772e-3 -8.43263e-2
vn 0.996431 3.86772e-3 -8.43263e-2
vn 1.92465e-4 -0.998751 -4.99667e-2
vn 1.92465e-4 -0.998751 -4.99667e-2
vn 2.60182e-2 -0.999471 -1.95026e-2
vn 0.996171 2.03734e-3 -8.74045e-2
vn 0.996171 2.03734e-3 -8.74045e-2
vn 2.60182e-2 -0.999471 -1.95026e-2
vn 2.36766e-2 -0.999439 2.37007e-2
vn 0.997995 2.32125e-3 6.32564e-2
vn 0.997995 2.32125e-3 6.32564e-2
vn 2.36766e-2 -0.999439 2.37007e-2
vn 0.878358 2.92230e-3 0.477995
vn 0.878358 2.92230e-3 0.477995
vn 1.31380e-2 -0.999056 4.13965e-2
vn 1.31380e-2 -0.999056 4.13965e-2
vn 0.487070 7.56318e-3 0.873330
vn 0.487070 7.56318e-3 0.873330
vn 1.79914e-2 -0.999599 2.18541e-2
vn 1.79914e-2 -0.999599 2.18541e-2
vn -2.04535e-2 -7.32966e-3 0.999764
vn -2.04535e-2 -7.32966e-3 0.999764
vn 2.44823e-2 -0.999648 1.01967e-2
vn -0.609994 -8.11231e-2 0.788242
vn -0.609994 -8.11231e-2 0.788242
vn 2.44823e-2 -0.999648 1.01967e-2
vn -0.944547 -0.103471 0.311647
vn -0.944547 -0.103471 0.311647
vn 1.79914e-2 -0.999599 2.18541e-2
vn 1.79914e-2 -0.999599 2.18541e-2
vn -0.998879 7.11541e-3 -4.67969e-2
vn -0.998879 7.11541e-3 -4.67969e-2
vn 1.31380e-2 -0.999056 4.13965e-2
vn 1.31380e-2 -0.999056 4.13965e-2
vn 2.36766e-2 -0.999439 2.37007e-2
vn -0.976939 4.13513e-2 -0.209478
vn -0.976939 4.13513e-2 -0.209478
vn 2.36766e-2 -0.999439 2.37007e-2
vn 2.60182e-2 -0.999471 -1.95026e-2
vn -0.983969 -5.25389e-3 -0.178262
vn -0.983969 -5.25389e-3 -0.178262
vn 2.60182e-2 -0.999471 -1.95026e-2
vn -0.997422 -1.29538e-2 -7.05818e-2
vn -0.997422 -1.29538e-2 -7.05818e-2
vn 1.92465e-4 -0.998751 -4.99667e-2
vn 1.92465e-4 -0.998751 -4.99667e-2
vn -0.705487 -7.58671e-2 0.704651
vn -0.705487 -7.58671e-2 0.704651
vn 3.58042e-2 -0.990189 0.135073
vn 6.28870e-2 -0.996377 5.72557e-2
vn -0.995667 -8.65935e-2 -3.38839e-2
vn -0.995667 -8.65935e-2 -3.38839e-2
vn 6.28870e-2 -0.996377 5.72557e-2
vn 0.102292 -0.994293 -3.02967e-2
vn -0.900854 -8.06273e-2 -0.426569
vn -0.900854 -8.06273e-2 -0.426569
vn 0.102292 -0.994293 -3.02967e-2
vn -0.475381 -5.77217e-2 -0.877884
vn -0.475381 -5.77217e-2 -0.877884
vn 0.115017 -0.992573 -3.96333e-2
vn 0.288377 3.77292e-4 -0.957517
vn 0.288377 3.77292e-4 -0.957517
vn 0.115017 -0.992573 -3.96333e-2
vn 0.102292 -0.994293 -3.02967e-2
vn 0.840012 5.33842e-2 -0.539936
vn 0.840012 5.33842e-2 -0.539936
vn 0.102292 -0.994293 -3.02967e-2
vn 6.28870e-2 -0.996377 5.72557e-2
vn 0.987893 8.10018e-2 -0.132311
vn 0.987893 8.10018e-2 -0.132311
vn 6.28870e-2 -0.996377 5.72557e-2
vn 0.656157 4.59212e-2 0.753226
vn 0.656157 4.59212e-2 0.753226
vn 3.58042e-2 -0.990189 0.135073
g cube6_default
usemtl default
f 15//7 11//139 142//277 15//7
f 16//8 12//143 143//282 16//8
f 17//9 3//2 4//116 21//144 
f 19//11 23//155 140//268 19//11
f 21//145 22//148 18//10 17//9
f 22//149 23//152 19//11 18//10
f 24//156 8//124 7//4 20//12
f 25//161 9//128 13//5 26//13
f 26//13 14//6 10//132 25//160
f 27//165 1//111 2//1 28//14
f 28//14 13//5 9//127 27//164
f 31//15 2//1 1//112 29//169
f 32//16 30//172 4//115 3//2
f 32//16 31//15 29//168 30//173
f 33//177 5//120 6//3 34//17
f 34//17 7//4 8//123 33//176
f 35//181 12//140 16//8 36//18
f 36//18 6//3 5//119 35//180
f 38//20 37//19 6//3 36//18
f 39//21 38//20 36//18 16//8
f 40//22 39//21 16//8 15//7
f 41//23 40//22 15//7 14//6
f 41//23 42//24 166//103 166//103
f 42//24 41//23 14//6 26//13
f 43//25 42//24 26//13 13//5
f 44//26 43//25 13//5 28//14
f 45//27 44//26 28//14 2//1
f 46//28 45//27 2//1 31//15
f 47//29 46//28 31//15 32//16
f 48//30 47//29 32//16 3//2
f 49//31 48//30 3//2 17//9
f 50//32 49//31 17//9 18//10
f 50//32 69//51 68//50 173//110
f 51//33 50//32 18//10 19//11
f 52//34 51//33 19//11 20//12
f 53//35 52//34 20//12 7//4
f 54//36 34//17 6//3 37//19
f 54//36 53//35 7//4 34//17
f 56//38 55//37 54//36 37//19
f 57//39 56//38 37//19 38//20
f 58//40 57//39 38//20 39//21
f 59//41 58//40 39//21 40//22
f 60//42 59//41 40//22 41//23
f 70//52 69//51 50//32 51//33
f 71//53 70//52 51//33 52//34
f 72//54 53//35 54//36 55//37
f 72//54 71//53 52//34 53//35
f 74//56 73//55 72//54 55//37
f 75//57 74//56 55//37 56//38
f 76//58 75//57 56//38 57//39
f 77//59 76//58 57//39 58//40
f 78//60 77//59 58//40 59//41
f 79//61 78//60 59//41 60//42
f 80//62 79//61 60//42 61//43
f 81//63 80//62 61//43 62//44
f 82//64 81//63 62//44 63//45
f 83//65 82//64 63//45 64//46
f 84//66 83//65 64//46 65//47
f 85//67 84//66 65//47 66//48
f 86//68 85//67 66//48 67//49
f 87//69 86//68 67//49 68//50
f 88//70 87//69 68//50 69//51
f 89//71 88//70 69//51 70//52
f 90//72 71//53 72//54 73//55
f 90//72 89//71 70//52 71//53
f 91//186 92//191 109//252 91//186
f 92//189 91//184 90//72 73//55
f 93//193 92//190 73//55 74//56
f 94//73 93//194 74//56 75//57
f 95//197 94//73 75//57 76//58
f 96//74 95//198 76//58 77//59
f 97//202 96//74 77//59 78//60
f 97//204 98//209 112//75 97//204
f 98//207 97//203 78//60 79//61
f 99//211 98//208 79//61 80//62
f 100//215 99//212 80//62 81//63
f 101//219 100//216 81//63 82//64
f 102//223 101//220 82//64 83//65
f 103//227 102//224 83//65 84//66
f 104//231 103//228 84//66 85//67
f 105//235 104//232 85//67 86//68
f 106//239 105//236 86//68 87//69
f 107//243 106//240 87//69 88//70
f 108//248 89//71 90//72 91//185
f 108//247 107//244 88//70 89//71
f 109//253 92//192 93//195 110//256
f 110//257 93//196 94//73 111//260
f 111//261 94//73 95//199 111//261
f 112//75 98//210 99//213 113//76
f 113//76 99//214 100//217 114//77
f 114//77 100//218 101//221 115//78
f 115//78 101//222 102//225 116//79
f 116//79 102//226 103//229 117//80
f 117//80 103//230 104//233 118//81
f 118//81 104//234 105//237 119//82
f 119//82 105//238 106//241 120//83
f 120//83 106//242 107//245 121//84
f 121//84 107//246 108//249 121//84
f 122//85 91//188 109//255 123//86
f 122//85 123//86 126//89 127//90
f 123//86 109//254 110//258 124//87
f 123//86 124//87 125//88 126//89
f 124//87 110//259 111//262 125//88
f 125//88 111//263 95//201 126//89
f 126//89 95//200 96//74 127//90
f 127//90 96//74 97//205 128//91
f 128//91 97//206 112//75 129//92
f 128//91 129//92 138//101 139//102
f 129//92 112//75 113//76 130//93
f 130//93 113//76 114//77 131//94
f 131//94 114//77 115//78 132//95
f 131//94 132//95 134//97 135//98
f 132//95 115//78 116//79 133//96
f 132//95 133//96 134//97 132//95
f 133//96 116//79 117//80 134//97
f 134//97 117//80 118//81 135//98
f 135//98 118//81 119//82 136//99
f 135//98 136//99 137//100 131//94
f 136//99 119//82 120//83 137//100
f 137//100 120//83 121//84 138//101
f 137//100 138//101 130//93 131//94
f 138//101 121//84 108//251 139//102
f 138//101 129//92 130//93 138//101
f 139//102 108//250 91//187 122//85
f 139//102 122//85 127//90 128//91
f 140//264 141//269 20//12 19//11
f 141//273 24//159 20//12 141//273
f 141//270 140//265 11//136 143//279
f 142//274 10//131 14//6 15//7
f 143//278 11//135 15//7 16//8
f 145//286 144//283 11//137 140//266
f 146//289 145//287 140//267 23//153
f 146//291 147//296 156//330 157//333
f 147//294 146//290 23//154 22//150
f 148//298 147//295 22//151 21//146
f 148//300 149//304 154//322 155//326
f 149//301 148//299 21//147 4//117
f 150//305 149//302 4//118 30//174
f 150//308 151//311 152//314 153//318
f 151//309 150//306 30//175 29//170
f 152//312 151//310 29//171 1//113
f 153//315 152//313 1//114 27//166
f 153//317 154//321 149//303 150//307
f 154//319 153//316 27//167 9//129
f 155//324 154//320 9//130 25//162
f 155//323 156//327 147//293 148//297
f 156//328 155//325 25//163 10//133
f 157//332 142//276 11//138 144//284
f 157//334 144//285 145//288 146//292
f 157//331 156//329 10//134 142//275
f 159//339 158//335 143//280 12//141
f 160//343 159//340 12//142 35//182
f 160//345 161//348 162//351 163//355
f 161//346 160//344 35//183 5//121
f 162//349 161//347 5//122 33//178
f 163//353 162//350 33//179 8//125
f 163//352 164//356 159//338 160//342
f 164//357 163//354 8//126 24//157
f 164//359 165//362 158//337 159//341
f 165//361 141//272 143//281 158//336
f 165//360 164//358 24//158 141//271
f 166//103 42//24 43//25 167//104
f 166//103 61//43 60//42 41//23
f 167//104 43//25 44//26 168//105
f 167//104 62//44 61//43 166//103
f 168//105 44//26 45//27 169//106
f 168//105 63//45 62//44 167//104
f 169//106 45//27 46//28 170//107
f 169//106 64//46 63//45 168//105
f 170//107 46//28 47//29 171//108
f 170//107 65//47 64//46 169//106
f 171//108 47//29 48//30 172//109
f 171//108 66//48 65//47 170//107
f 172//109 48//30 49//31 173//110
f 172//109 67//49 66//48 171//108
f 173//110 49//31 50//32 173//110
f 173//110 68//50 67//49 172//109
